<?xml version="1.0" encoding="UTF-8"?>
<mxfile host="app.diagrams.net" agent="Cascade" version="22.0.3" type="device">
  <diagram id="mcd-pf2025" name="MCD">
    <mxGraphModel dx="1086" dy="690" grid="1" gridSize="10" guides="1" tooltips="1" connect="1" arrows="1" fold="1" page="1" pageScale="1" pageWidth="1169" pageHeight="827" math="0" shadow="0">
      <root>
        <mxCell id="0"/>
        <mxCell id="1" parent="0"/>

        <!-- Entity: User -->
        <mxCell id="user-entity" value="&lt;b&gt;User&lt;/b&gt;&lt;br/&gt;id&lt;br/&gt;email&lt;br/&gt;password&lt;br/&gt;level&lt;br/&gt;createdAt&lt;br/&gt;updatedAt" style="rounded=1;whiteSpace=wrap;html=1;strokeColor=#1a73e8;fillColor=#e8f0fe;align=left;labelPosition=center;verticalLabelPosition=top;verticalAlign=top;spacing=8;fontSize=12;" vertex="1" parent="1">
          <mxGeometry x="140" y="120" width="180" height="160" as="geometry"/>
        </mxCell>

        <!-- Entity: Project -->
        <mxCell id="project-entity" value="&lt;b&gt;Project&lt;/b&gt;&lt;br/&gt;id&lt;br/&gt;image&lt;br/&gt;description&lt;br/&gt;link&lt;br/&gt;createdAt&lt;br/&gt;updatedAt" style="rounded=1;whiteSpace=wrap;html=1;strokeColor=#34a853;fillColor=#e6f4ea;align=left;labelPosition=center;verticalLabelPosition=top;verticalAlign=top;spacing=8;fontSize=12;" vertex="1" parent="1">
          <mxGeometry x="440" y="120" width="200" height="160" as="geometry"/>
        </mxCell>

        <!-- Relationship: User (1) —— (N) Project -->
        <mxCell id="edge-user-project" value="1 .. N" style="endArrow=block;endFill=1;html=1;strokeColor=#111111;labelBackgroundColor=#ffffff;fontSize=12;" edge="1" parent="1" source="user-entity" target="project-entity">
          <mxGeometry relative="1" as="geometry">
            <mxPoint x="0" y="0" as="targetPoint"/>
          </mxGeometry>
        </mxCell>

        <!-- FK annotation on Project to indicate belongsTo User -->
        <mxCell id="fk-note" value="Project appartient à 1 User" style="whiteSpace=wrap;html=1;fillColor=#fff8e1;strokeColor=#f6bf26;rounded=1;spacing=6;fontSize=11;" vertex="1" parent="1">
          <mxGeometry x="480" y="300" width="180" height="40" as="geometry"/>
        </mxCell>

      </root>
    </mxGraphModel>
  </diagram>
</mxfile>
